<?xml version="1.0" encoding="utf-8" standalone="no"?>
<svg xmlns:dc="http://purl.org/dc/elements/1.1/" xmlns:cc="http://creativecommons.org/ns#" xmlns:rdf="http://www.w3.org/1999/02/22-rdf-syntax-ns#" xmlns:svg="http://www.w3.org/2000/svg" xmlns="http://www.w3.org/2000/svg" xmlns:sodipodi="http://sodipodi.sourceforge.net/DTD/sodipodi-0.dtd" xmlns:inkscape="http://www.inkscape.org/namespaces/inkscape" width="196.06979" height="117.39249" viewBox="0 0 69.16907 41.413463" version="1.1" id="svg8" inkscape:version="0.92.3 (2405546, 2018-03-11)">
  <defs id="defs4">
    
  </defs>
  
  <metadata id="metadata5">
    
  </metadata>
  <g inkscape:label="Layer 1" id="layer1" transform="translate(-0.92790437,-227.30726)">
    <g style="font-style:normal;font-variant:normal;font-weight:normal;font-stretch:normal;font-size:25.90147018px;line-height:1.25;font-family:Oswald;letter-spacing:0px;word-spacing:0px;fill:#666666;fill-opacity:1;stroke:none;stroke-width:0.64753681" id="text4520" transform="translate(-0.25198413,-27.264683)">
      <path d="m 1.1798885,274.79801 h 8.1071602 v 2.09802 H 4.1067546 v 6.99339 h 4.0147279 v 2.07212 H 4.1067546 v 9.81666 H 1.1798885 Z" style="fill:#666666;fill-opacity:1;stroke-width:0.64753681" id="path818"/>
      <path d="m 15.208772,295.98541 q -1.735398,0 -2.693753,-0.64754 -0.958354,-0.67343 -1.346876,-1.96851 -0.388522,-1.29507 -0.388522,-3.36719 v -3.41899 q 0,-3.10818 0.958354,-4.53276 0.984256,-1.45048 3.470797,-1.45048 1.813103,0 2.719654,0.75114 0.932453,0.75114 1.21737,2.12392 0.310817,1.34688 0.310817,3.65211 v 1.21737 h -5.905535 v 3.00457 q 0,1.37277 0.388522,1.99441 0.414424,0.59573 1.295074,0.59573 0.88065,0 1.191467,-0.59573 0.310818,-0.62164 0.310818,-1.86491 V 290.572 h 2.693753 v 0.56984 q 0,2.35703 -1.010158,3.6003 -1.010157,1.24327 -3.211782,1.24327 z m 1.528187,-9.14322 v -1.34688 q 0,-1.52818 -0.310818,-2.17572 -0.284916,-0.67344 -1.24327,-0.67344 -0.673439,0 -1.036059,0.31082 -0.336719,0.31082 -0.466227,1.03606 -0.129507,0.69934 -0.129507,2.04622 v 0.80294 z" style="fill:#666666;fill-opacity:1;stroke-width:0.64753681" id="path820"/>
      <path d="m 26.135955,295.98541 q -1.735398,0 -2.693753,-0.64754 -0.958354,-0.67343 -1.346876,-1.96851 -0.388522,-1.29507 -0.388522,-3.36719 v -3.41899 q 0,-3.10818 0.958354,-4.53276 0.984256,-1.45048 3.470797,-1.45048 1.813103,0 2.719655,0.75114 0.932453,0.75114 1.217369,2.12392 0.310817,1.34688 0.310817,3.65211 v 1.21737 h -5.905535 v 3.00457 q 0,1.37277 0.388522,1.99441 0.414424,0.59573 1.295074,0.59573 0.88065,0 1.191467,-0.59573 0.310818,-0.62164 0.310818,-1.86491 V 290.572 h 2.693753 v 0.56984 q 0,2.35703 -1.010157,3.6003 -1.010158,1.24327 -3.211783,1.24327 z m 1.528187,-9.14322 v -1.34688 q 0,-1.52818 -0.310818,-2.17572 -0.284916,-0.67344 -1.24327,-0.67344 -0.673438,0 -1.036059,0.31082 -0.336719,0.31082 -0.466226,1.03606 -0.129508,0.69934 -0.129508,2.04622 v 0.80294 z" style="fill:#666666;fill-opacity:1;stroke-width:0.64753681" id="path822"/>
      <path d="m 36.3897,295.98541 q -1.94261,0 -2.849162,-1.39868 -0.906551,-1.42458 -0.906551,-4.68817 v -2.90096 q 0,-2.97867 0.777044,-4.68817 0.802946,-1.70949 2.900965,-1.70949 1.320975,0 2.486541,1.16556 v -6.96749 h 2.771457 v 20.98019 h -2.771457 v -0.95836 q -1.087862,1.16557 -2.408837,1.16557 z m 0.69934,-2.17572 q 0.828847,0 1.709497,-0.56984 v -9.81665 q -0.958354,-0.64754 -1.7613,-0.64754 -1.631793,0 -1.631793,3.13408 v 4.22194 q 0,1.8131 0.336719,2.74555 0.33672,0.93246 1.346877,0.93246 z" style="fill:#666666;fill-opacity:1;stroke-width:0.64753681" id="path824"/>
      <path d="m 44.351972,280.80715 h 2.564246 v 1.42458 q 0.751143,-0.82885 1.631793,-1.24327 0.906551,-0.44033 1.890807,-0.44033 1.916709,0 2.434738,1.89081 1.554088,-1.89081 3.729812,-1.89081 1.165566,0 1.890807,0.85475 0.751143,0.85475 0.751143,2.61605 v 11.75927 h -2.538344 v -11.57796 q 0,-1.03606 -0.336719,-1.42458 -0.33672,-0.41442 -0.958355,-0.41442 -0.569832,0 -1.191467,0.33672 -0.621636,0.31081 -1.139665,0.88065 v 0.44032 11.75927 h -2.538344 v -11.57796 q 0,-1.03606 -0.336719,-1.42458 -0.336719,-0.41442 -0.958355,-0.41442 -0.543931,0 -1.165566,0.33672 -0.621635,0.31081 -1.165566,0.88065 v 12.19959 h -2.564246 z" style="fill:#666666;fill-opacity:1;stroke-width:0.64753681" id="path826"/>
      <path d="m 66.101116,295.98541 q -1.735399,0 -2.693753,-0.64754 -0.958355,-0.67343 -1.346877,-1.96851 -0.388522,-1.29507 -0.388522,-3.36719 v -3.41899 q 0,-3.10818 0.958355,-4.53276 0.984255,-1.45048 3.470797,-1.45048 1.813103,0 2.719654,0.75114 0.932453,0.75114 1.217369,2.12392 0.310818,1.34688 0.310818,3.65211 v 1.21737 h -5.905535 v 3.00457 q 0,1.37277 0.388522,1.99441 0.414423,0.59573 1.295073,0.59573 0.88065,0 1.191468,-0.59573 0.310817,-0.62164 0.310817,-1.86491 V 290.572 h 2.693753 v 0.56984 q 0,2.35703 -1.010157,3.6003 -1.010157,1.24327 -3.211782,1.24327 z m 1.528186,-9.14322 v -1.34688 q 0,-1.52818 -0.310817,-2.17572 -0.284916,-0.67344 -1.243271,-0.67344 -0.673438,0 -1.036059,0.31082 -0.336719,0.31082 -0.466226,1.03606 -0.129507,0.69934 -0.129507,2.04622 v 0.80294 z" style="fill:#666666;fill-opacity:1;stroke-width:0.64753681" id="path828"/>
    </g>
    <path style="fill:none;fill-opacity:1;stroke:#999999;stroke-width:3.06660414;stroke-miterlimit:4;stroke-dasharray:none;stroke-opacity:1" id="path4522" sodipodi:type="arc" sodipodi:cx="39.932594" sodipodi:cy="243.77742" sodipodi:rx="5.7319078" sodipodi:ry="5.7319078" sodipodi:start="3.9269908" sodipodi:end="5.4977871" d="m 35.879523,239.72435 a 5.7319078,5.7319078 0 0 1 8.106142,0" sodipodi:open="true"/>
    <ellipse style="fill:#e61610;fill-opacity:1;stroke:#6e7676;stroke-width:0;stroke-miterlimit:4;stroke-dasharray:none;stroke-opacity:1" id="path4522-8" cx="39.932594" cy="243.77742" rx="1.8080972" ry="1.8080975"/>
    <path style="fill:none;stroke:#cccccc;stroke-width:3.06660414;stroke-miterlimit:4;stroke-dasharray:none;stroke-opacity:1" id="path4522-4" sodipodi:type="arc" sodipodi:cx="39.932594" sodipodi:cy="243.77742" sodipodi:rx="10.473207" sodipodi:ry="10.473207" sodipodi:start="3.9269908" sodipodi:end="5.4977871" d="m 32.526918,236.37174 a 10.473207,10.473207 0 0 1 14.811352,0" sodipodi:open="true"/>
    <path style="fill:none;stroke:#efefef;stroke-width:3.06660414;stroke-miterlimit:4;stroke-dasharray:none;stroke-opacity:1" id="path4522-4-0" sodipodi:type="arc" sodipodi:cx="39.932594" sodipodi:cy="243.77742" sodipodi:rx="14.946492" sodipodi:ry="14.946492" sodipodi:start="3.9269908" sodipodi:end="5.4977871" d="m 29.363828,233.20865 a 14.946492,14.946492 0 0 1 21.137532,0" sodipodi:open="true"/>
  </g>
</svg>
